<svg width="44" height="44" viewBox="0 0 44 44" fill="none" xmlns="http://www.w3.org/2000/svg">
<g filter="url(#filter0_d_5637_136710)">
<rect x="2" y="1" width="40" height="40" rx="8" fill="white"/>
<g clip-path="url(#clip0_5637_136710)">
<path d="M32 21C32 15.4771 27.5229 11 22 11C16.4771 11 12 15.4771 12 21C12 25.9912 15.6568 30.1283 20.4375 30.8785V23.8906H17.8984V21H20.4375V18.7969C20.4375 16.2906 21.9305 14.9063 24.2146 14.9063C25.3084 14.9063 26.4531 15.1016 26.4531 15.1016V17.5625H25.1922C23.95 17.5625 23.5625 18.3334 23.5625 19.125V21H26.3359L25.8926 23.8906H23.5625V30.8785C28.3432 30.1283 32 25.9912 32 21Z" fill="#98A2B3"/>
</g>
<rect x="2.5" y="1.5" width="39" height="39" rx="7.5" stroke="#D0D5DD"/>
</g>
<defs>
<filter id="filter0_d_5637_136710" x="0" y="0" width="44" height="44" filterUnits="userSpaceOnUse" color-interpolation-filters="sRGB">
<feFlood flood-opacity="0" result="BackgroundImageFix"/>
<feColorMatrix in="SourceAlpha" type="matrix" values="0 0 0 0 0 0 0 0 0 0 0 0 0 0 0 0 0 0 127 0" result="hardAlpha"/>
<feOffset dy="1"/>
<feGaussianBlur stdDeviation="1"/>
<feColorMatrix type="matrix" values="0 0 0 0 0.0627451 0 0 0 0 0.0941176 0 0 0 0 0.156863 0 0 0 0.05 0"/>
<feBlend mode="normal" in2="BackgroundImageFix" result="effect1_dropShadow_5637_136710"/>
<feBlend mode="normal" in="SourceGraphic" in2="effect1_dropShadow_5637_136710" result="shape"/>
</filter>
<clipPath id="clip0_5637_136710">
<rect width="20" height="20" fill="white" transform="translate(12 11)"/>
</clipPath>
</defs>
</svg>