<svg width="44" height="44" viewBox="0 0 44 44" fill="none" xmlns="http://www.w3.org/2000/svg">
<g filter="url(#filter0_d_5637_136706)">
<rect x="2" y="1" width="40" height="40" rx="8" fill="white"/>
<path d="M18.2918 29.1251C25.8371 29.1251 29.9652 22.8724 29.9652 17.4517C29.9652 17.2759 29.9613 17.0962 29.9535 16.9204C30.7566 16.3397 31.4496 15.6203 32 14.7962C31.2521 15.129 30.458 15.3463 29.6449 15.4407C30.5011 14.9275 31.1421 14.1213 31.4492 13.1716C30.6438 13.6489 29.763 13.9856 28.8445 14.1673C28.2257 13.5098 27.4075 13.0744 26.5164 12.9285C25.6253 12.7826 24.711 12.9343 23.9148 13.3602C23.1186 13.7861 22.4848 14.4624 22.1115 15.2845C21.7382 16.1067 21.6462 17.029 21.8496 17.9087C20.2187 17.8269 18.6233 17.4032 17.1667 16.6652C15.71 15.9272 14.4247 14.8913 13.3941 13.6247C12.8703 14.5278 12.71 15.5965 12.9459 16.6135C13.1817 17.6306 13.7959 18.5197 14.6637 19.1001C14.0122 19.0794 13.375 18.904 12.8047 18.5884V18.6392C12.8041 19.5869 13.1317 20.5056 13.7319 21.2391C14.3321 21.9726 15.1678 22.4756 16.0969 22.6626C15.4934 22.8277 14.86 22.8518 14.2457 22.7329C14.5079 23.548 15.018 24.2609 15.7048 24.7721C16.3916 25.2833 17.2209 25.5673 18.077 25.5845C16.6237 26.726 14.8285 27.3452 12.9805 27.3423C12.6527 27.3418 12.3253 27.3217 12 27.2821C13.8774 28.4866 16.0613 29.1263 18.2918 29.1251Z" fill="#98A2B3"/>
<rect x="2.5" y="1.5" width="39" height="39" rx="7.5" stroke="#D0D5DD"/>
</g>
<defs>
<filter id="filter0_d_5637_136706" x="0" y="0" width="44" height="44" filterUnits="userSpaceOnUse" color-interpolation-filters="sRGB">
<feFlood flood-opacity="0" result="BackgroundImageFix"/>
<feColorMatrix in="SourceAlpha" type="matrix" values="0 0 0 0 0 0 0 0 0 0 0 0 0 0 0 0 0 0 127 0" result="hardAlpha"/>
<feOffset dy="1"/>
<feGaussianBlur stdDeviation="1"/>
<feColorMatrix type="matrix" values="0 0 0 0 0.0627451 0 0 0 0 0.0941176 0 0 0 0 0.156863 0 0 0 0.05 0"/>
<feBlend mode="normal" in2="BackgroundImageFix" result="effect1_dropShadow_5637_136706"/>
<feBlend mode="normal" in="SourceGraphic" in2="effect1_dropShadow_5637_136706" result="shape"/>
</filter>
</defs>
</svg>